<svg version="1" xmlns="http://www.w3.org/2000/svg" width="1820" height="1820" viewBox="0 0 1365.000000 1365.000000"><path d="M262 280.9c-43.5 9.3-85.3 34.5-114.9 69.5-13 15.4-16.7 20.9-19 28.7-6.3 20.6-9.1 40.3-9.1 65.1 0 21.9 1.8 37.2 6.4 56 12.4 49.7 39.5 87.6 73.9 103.2 5 2.3 13.9 4.7 29.2 8 36.9 7.7 39.1 8 60 8 17.7 0 19.5-.2 26.6-2.5 9.3-3.2 16.8-8 24.1-15.7 7.2-7.5 9.8-12.8 11-22.1 1.7-14-2-27.2-9.7-33.9-8.2-7.3-17.4-10.1-46.4-14.2-23.8-3.3-37.3-6.3-48.5-10.7-14.7-5.8-27.8-24.5-32.7-46.8-1.9-8.6-1.7-31.3.4-39.9 6.8-27.5 22.6-46.9 45.9-56.3 13.8-5.6 25.1-5.4 46 .8 34.8 10.3 60.3 32.1 77.2 65.7 11.1 22.1 11 21.2 11.1 149.7 0 89 .2 100.6 1.8 114.5 2.6 21.7 6 39.6 10.2 52.9 3.3 10.3 4.1 11.8 8.6 16.2 6.1 5.9 14.5 10.1 27.1 13.4 8.8 2.3 10.4 2.5 15.9 1.5 20.2-3.7 30.6-14.2 34.5-35 1.4-7.3 1.5-12.2.8-35.5-1.4-42.4-1.1-61.7 1-70.8.9-4.2 2.1-7.5 2.6-7.2.5.3 3.9 5.6 7.6 11.8 22.5 37.5 37.8 54.7 56.9 63.8 31.8 15.2 61.7-.7 90.1-47.8 7.2-12.1 16.2-29.9 22.8-45.3l4.6-10.5v12c.2 53.1 2.6 131.5 5 164.5 8.3 111.4 30.7 186.5 71 237 8.3 10.4 24.9 26.6 35 34.1 37.3 27.9 90.8 45.2 164 53.1 18.1 2 74.1 1.6 92-.5 59.1-7.2 102.9-24.5 131.6-51.9 9-8.7 25.2-29.6 36.6-47.3 13.9-21.5 21-43.4 22.5-68.5l.6-10.9-5.1-6.9c-12.6-16.9-23-22.6-45.4-24.8-5.9-.5-7.3-.3-12.4 2-14.7 6.7-21.1 15.8-35.4 49.6-10 23.7-15.8 31.8-29.2 40.3-40.3 25.8-109.4 33.4-178.2 19.6-30.1-6-55.8-14.9-74.5-25.8-18.8-11-43.9-53-55.5-92.6-17.8-61.6-21.8-122.6-18.1-278 2.4-100.8 1.4-167.1-3.1-204.5-.9-7.3-2.3-9.8-10.4-18.4-7.6-8-15.1-12.6-24.5-15.1-12.6-3.2-21.1-1.3-34 8-12.9 9.2-20.1 19.4-34 47.7-6.1 12.7-12.9 24.6-19.7 34.8-5.7 8.5-15.7 24.9-22.2 36.5-19.2 33.7-28.8 46.7-42.5 57.7-4.1 3.3-8.1 6.2-8.8 6.5-1.9.7-13-9.4-21.8-19.8-14.2-16.9-23.1-31.6-44.8-73.4C506 460 499.1 448 493 439.4c-4.8-6.7-13.8-20.2-20-30-41.3-65.4-51.5-76.6-91-100.4-28.2-17-56-26.3-86.5-28.9-16.4-1.5-23.5-1.3-33.5.8z"/></svg>