<svg version="1" xmlns="http://www.w3.org/2000/svg" width="1820" height="1820" viewBox="0 0 1365.000000 1365.000000"><path d="M268 280c-7.8 1-23.2 5.3-34.7 9.6-37.9 14.1-70.3 39.1-97.8 75.3-9.8 12.9-16.5 44.9-16.5 78.7 0 19.1 1.1 31 4.6 48.1 10.6 53.1 41 97.2 77.4 112.4 7.4 3.1 48.8 12.1 66.3 14.4 23.9 3.1 41.9 1.5 55.2-5 12-5.8 24-18.4 26.6-27.8.6-2.1 1-8.3 1-13.6 0-20.3-7.9-30.4-28-36-4.1-1.1-17.1-3.4-29-5.1-33.5-4.8-49.5-9.3-57.9-16.6-8.6-7.3-16.4-20.6-20.8-35.1-2.4-7.8-2.7-10.6-2.8-23.8 0-16.4 1-22.4 6.4-36.2 9.8-25.6 33.3-44.4 57.5-46 16.5-1.2 46.4 8.5 65 21 19.1 12.8 35.8 33.8 46.5 58.6 6.1 14.1 6.5 21.7 6.5 138.1 0 86.1.3 101.5 1.7 114.7 2.9 25.9 6 42 11.4 58.6 4.4 13.2 13.2 20.1 32.6 25.6 9.7 2.7 11.3 2.9 17.5 2 9-1.2 20-6.6 24.9-12.2 4.1-4.8 7.5-11.7 9.5-19.7 1.7-6.5 1.9-35.9.5-69.5-.6-15.9-.5-24.5.3-31 1.4-10.2 2.8-16.5 3.9-16.5.4 0 3.1 4.2 6.1 9.3 24.3 41.5 44.7 63.1 65.9 69.7 13.9 4.3 26.3 3.2 39.5-3.7 10.7-5.5 26.8-22 37.5-38.2 8.6-13 20.2-35 28.3-53.6 3.7-8.4 4.9-10.3 4.9-8 0 1.6.5 28.6 1 60 .9 58.6 1.9 83.3 4.5 118 12.5 163.7 57.7 252.2 148.5 291 61.4 26.2 151.6 36.8 224.5 26.4 52.1-7.5 93.3-24.6 119.9-49.9 12.9-12.2 37.1-46 45.6-63.5 8.3-17 12.2-32.1 13.6-52.2l.7-10.3-3.8-5.7C1221 915 1209.2 908 1188 906c-8.9-.9-9.8-.8-14.7 1.5-13.8 6.3-21.6 17.1-34.3 47.5-9.8 23.4-14.5 30.8-24.2 38.3-9.3 7.1-30.2 17.1-44.3 21.1-63.6 18.1-153.3 9.1-210.9-21.2-6.9-3.7-10.2-6.2-14.9-11.4-33.4-37.3-52.8-92.8-60.2-172.3-3.9-41.8-4.5-99.4-2-194 2.4-92 1.8-142.1-2.1-187-1.5-17.8-1.6-18.1-5-23.1-10.6-15.7-28.4-25.5-43.8-24.2-6.7.6-16.7 5.5-25.1 12.5-10.1 8.3-17.3 18.9-28.9 42.8-6.7 13.6-13.4 25.6-19 33.7-4.7 6.9-14.7 23.3-22.2 36.5-15.3 26.6-22.4 37.5-31.1 47.8-6.4 7.6-20.4 19.5-22.9 19.5-2.6 0-21.5-19.8-29.6-31-10.9-15.2-18.1-27.6-36.3-62.6-8.9-17.2-18.3-33.8-20.7-37-6-7.8-17.8-25.7-31.8-47.9-18.9-30.2-32.4-48.1-46.1-61.1-6.8-6.5-29.7-22.1-43.8-29.8-26.9-14.8-51.1-22.2-80.6-24.6-14-1.1-17.3-1.1-25.5 0z"/></svg>